<svg height="522pt" viewBox="0 -1 522.7797 522" width="522pt" xmlns="http://www.w3.org/2000/svg"><g fill="#80deea"><path d="m424.046875 466.585938-30.953125-11.339844c5.703125-15.578125 10.679688-31.679688 14.835938-47.835938l31.941406 8.210938c-4.433594 17.207031-9.757813 34.367187-15.824219 50.964844zm0 0"/><path d="m447.257812 382.589844-32.390624-6.183594c5.984374-31.347656 9.015624-63.589844 9.015624-95.8125 0-58.101562-28.25-113.136719-75.554687-147.222656l19.265625-26.75c55.894531 40.25 89.273438 105.289062 89.273438 173.972656 0 34.285156-3.230469 68.601562-9.609376 101.996094zm0 0"/><path d="m91.480469 180.460938-27.445313-18.261719c39.921875-60.027344 106.660156-95.878907 178.554688-95.878907 31.136718 0 61.183594 6.542969 89.304687 19.5l-13.78125 29.929688c-23.765625-10.925781-49.183593-16.464844-75.523437-16.464844-60.820313 0-117.304688 30.34375-151.109375 81.175782zm0 0"/><path d="m40.496094 356.132812-28.316406-16.894531c10.550781-17.699219 16.136718-37.972656 16.136718-58.644531 0-29.765625 6.015625-58.59375 17.867188-85.675781l30.195312 13.203125c-10.019531 22.894531-15.097656 47.289062-15.097656 72.472656 0 26.605469-7.183594 52.730469-20.785156 75.539062zm0 0"/><path d="m330.65625 512.621094-28.777344-16.070313c29.175782-52.265625 47.191406-108.867187 53.550782-168.273437l32.769531 3.511718c-6.824219 63.835938-26.191407 124.675782-57.542969 180.832032zm0 0"/><path d="m390.636719 297.652344-32.945313-1.152344c.179688-5.273438.277344-10.582031.277344-15.90625 0-63.605469-51.753906-115.378906-115.378906-115.378906-14.964844 0-29.519532 2.835937-43.230469 8.425781l-12.429687-30.5625c17.6875-7.167969 36.410156-10.828125 55.660156-10.828125 81.789062 0 148.34375 66.542969 148.34375 148.34375 0 5.71875-.097656 11.390625-.296875 17.058594zm0 0"/><path d="m73.066406 422.789062-24.558594-21.988281c29.503907-32.929687 45.738282-75.636719 45.738282-120.207031 0-42.507812 18.347656-83.054688 50.339844-111.257812l21.789062 24.726562c-24.886719 21.9375-39.160156 53.484375-39.160156 86.53125 0 52.695312-19.238282 103.214844-54.148438 142.195312zm0 0"/><path d="m248.210938 519.660156-26.75-19.253906c13.945312-19.382812 26.089843-40.199219 36.097656-61.890625l29.929687 13.8125c-10.894531 23.601563-24.113281 46.25-39.277343 67.332031zm0 0"/><path d="m301.484375 417.960938-31.070313-11.011719c14.355469-40.445313 21.625-82.957031 21.625-126.355469 0-27.261719-22.183593-49.445312-49.449218-49.445312-17.601563 0-34.019532 9.476562-42.851563 24.722656-4.320312 7.484375-6.59375 16.019531-6.59375 24.722656 0 11.703125-.742187 23.488281-2.191406 35.027344l-32.703125-4.121094c1.269531-10.171875 1.929688-20.570312 1.929688-30.90625 0-14.488281 3.804687-28.726562 11.027343-41.207031 14.683594-25.414063 42.046875-41.207031 71.382813-41.207031 45.445312 0 82.414062 36.972656 82.414062 82.414062 0 47.15625-7.910156 93.375-23.519531 137.367188zm0 0"/><path d="m119.070312 470.09375-24.277343-22.316406c27.523437-29.933594 47.417969-66.375 57.523437-105.40625l31.925782 8.273437c-11.472657 44.242188-34.003907 85.53125-65.171876 119.449219zm0 0"/><path d="m177.730469 503.339844-25.214844-21.210938c47.453125-56.386718 73.59375-127.957031 73.59375-201.535156h32.964844c0 81.34375-28.894531 160.441406-81.34375 222.746094zm0 0"/><path d="m513.320312 350.910156-31.78125-8.753906c5.488282-19.960938 8.292969-40.679688 8.292969-61.546875 0-43.429687-11.472656-86.167969-33.179687-123.585937l28.515625-16.546876c24.605469 42.441407 37.613281 90.917969 37.613281 140.132813.015625 23.820313-3.183594 47.488281-9.460938 70.300781zm0 0"/><path d="m435.453125 126.085938c-47.304687-58.925782-117.601563-92.730469-192.863281-92.730469-41.832032 0-83.1875 10.679687-119.578125 30.886719l-16.007813-28.808594c41.289063-22.929688 88.167969-35.042969 135.585938-35.042969 85.316406 0 164.976562 38.289063 218.578125 105.058594zm0 0"/><path d="m28.515625 157.007812-28.515625-16.546874c17.503906-30.179688 40.183594-56.570313 67.445312-78.460938l20.636719 25.730469c-24.078125 19.320312-44.121093 42.625-59.566406 69.277343zm0 0"/></g></svg>